<?xml version="1.0" encoding="UTF-8" standalone="no"?>
<!-- Created with Inkscape (http://www.inkscape.org/) -->

<svg
   xmlns:dc="http://purl.org/dc/elements/1.1/"
   xmlns:cc="http://creativecommons.org/ns#"
   xmlns:rdf="http://www.w3.org/1999/02/22-rdf-syntax-ns#"
   xmlns:svg="http://www.w3.org/2000/svg"
   xmlns="http://www.w3.org/2000/svg"
   xmlns:sodipodi="http://sodipodi.sourceforge.net/DTD/sodipodi-0.dtd"
   xmlns:inkscape="http://www.inkscape.org/namespaces/inkscape"
   width="509.56143"
   height="135.34415"
   id="svg3206"
   version="1.1"
   inkscape:version="0.48.1 r9760"
   sodipodi:docname="logo.svg"
   inkscape:export-filename="/home/jj/projects/ideas/scribblefont.png"
   inkscape:export-xdpi="66.410049"
   inkscape:export-ydpi="66.410049">
  <defs
     id="defs3208" />
  <sodipodi:namedview
     id="base"
     pagecolor="#ffffff"
     bordercolor="#666666"
     borderopacity="1.0"
     inkscape:pageopacity="0.0"
     inkscape:pageshadow="2"
     inkscape:zoom="0.98994949"
     inkscape:cx="261.93086"
     inkscape:cy="134.63029"
     inkscape:document-units="px"
     inkscape:current-layer="layer1"
     showgrid="false"
     inkscape:snap-global="false"
     fit-margin-top="10"
     fit-margin-left="10"
     fit-margin-right="10"
     fit-margin-bottom="30"
     inkscape:window-width="1050"
     inkscape:window-height="1680"
     inkscape:window-x="0"
     inkscape:window-y="0"
     inkscape:window-maximized="0" />
  <metadata
     id="metadata3211">
    <rdf:RDF>
      <cc:Work
         rdf:about="">
        <dc:format>image/svg+xml</dc:format>
        <dc:type
           rdf:resource="http://purl.org/dc/dcmitype/StillImage" />
        <dc:title />
      </cc:Work>
    </rdf:RDF>
  </metadata>
  <g
     inkscape:label="Layer 1"
     inkscape:groupmode="layer"
     id="layer1"
     transform="translate(-22.771208,-7.429141)">
    <path
       inkscape:connector-curvature="0"
       id="path4004"
       style="font-size:89.44792175px;font-style:normal;font-variant:normal;font-weight:normal;font-stretch:normal;text-align:start;line-height:125%;letter-spacing:0px;word-spacing:0px;writing-mode:lr-tb;text-anchor:start;fill:#000000;fill-opacity:1;stroke:none;font-family:Domestic Manners;-inkscape-font-specification:Domestic Manners"
       d="m 68.934723,47.565404 c -4.2e-5,1.310327 -1.252079,2.111048 -3.756114,2.402165 -3.02822,0.320343 -6.041843,0.626073 -9.040878,0.917191 -4.658771,0.611513 -8.298413,1.485027 -10.918936,2.620545 -3.523192,1.543258 -5.284778,3.581457 -5.284765,6.114604 -1.3e-5,2.707937 2.445826,4.949957 7.337525,6.726064 3.319332,0.99002 8.065425,2.62058 14.238292,4.891683 5.503103,2.416755 8.254672,6.842559 8.254716,13.277426 -4.4e-5,5.823446 -1.121053,10.55498 -3.363033,14.194617 -2.707933,4.367571 -6.784331,6.551361 -12.229208,6.551361 -3.93084,0 -8.211059,-0.87352 -12.840668,-2.62054 -5.706973,-2.15467 -8.560452,-4.80433 -8.560446,-7.94899 -6e-6,-1.252027 0.407634,-2.373037 1.222921,-3.363032 0.815272,-0.98997 1.848931,-1.484961 3.100978,-1.484975 1.252026,1.4e-5 2.649648,0.713384 4.192871,2.140111 2.504059,2.329383 3.989033,3.654212 4.454926,3.974493 2.067297,1.426747 4.396668,2.140117 6.988119,2.140111 3.29021,6e-6 5.968986,-1.019094 8.036336,-3.057302 2.0964,-2.067307 3.144617,-4.746084 3.144654,-8.036336 -3.7e-5,-3.814328 -1.39766,-6.463987 -4.192871,-7.948986 -1.747061,-0.931723 -5.255676,-2.241994 -10.525854,-3.930817 -4.513179,-1.455827 -7.803415,-2.940801 -9.870718,-4.454925 -3.115546,-2.300221 -5.051836,-5.444871 -5.808874,-9.433961 -0.17471,-0.902588 -0.262061,-1.732427 -0.262055,-2.489517 -6e-6,-5.619562 3.654194,-10.336537 10.962612,-14.150941 3.639624,-1.892554 7.992635,-2.838861 13.059047,-2.838923 2.504043,6.2e-5 5.67781,0.232999 9.521312,0.698812 1.426699,2.940892 2.140069,4.644244 2.140111,5.110062" />
    <path
       inkscape:connector-curvature="0"
       id="path4006"
       style="font-size:89.44792175px;font-style:normal;font-variant:normal;font-weight:normal;font-stretch:normal;text-align:start;line-height:125%;letter-spacing:0px;word-spacing:0px;writing-mode:lr-tb;text-anchor:start;fill:#000000;fill-opacity:1;stroke:none;font-family:Domestic Manners;-inkscape-font-specification:Domestic Manners"
       d="m 115.62409,73.028362 c -0.6115,1.805293 -2.30029,2.707924 -5.06638,2.707896 -0.69885,2.8e-5 -1.76163,-0.04365 -3.18833,-0.131027 -1.39766,-0.08732 -2.44588,-0.130999 -3.14465,-0.131028 -3.75615,2.9e-5 -8.138277,2.081904 -13.146404,6.245632 -5.153752,4.28024 -7.730618,8.24017 -7.730606,11.879802 -1.2e-5,1.717921 0.596889,3.173778 1.790705,4.367574 1.193789,1.164691 2.649645,1.747034 4.367575,1.74703 2.212883,4e-6 6.245606,-1.470411 12.09818,-4.41125 5.85251,-2.969939 9.92891,-4.454913 12.22921,-4.454926 2.73697,1.3e-5 4.10547,0.989996 4.10552,2.96995 -5e-5,0.873525 -0.17475,1.645129 -0.52411,2.314815 -12.63688,6.31843 -22.056275,9.47763 -28.258206,9.47764 -3.348489,-1e-5 -6.27476,-0.8444 -8.778825,-2.5332 -2.853488,-1.92173 -4.280227,-4.484035 -4.280222,-7.686928 -5e-6,-5.182841 2.882591,-10.700538 8.647797,-16.553106 4.192853,-4.251077 9.30291,-8.152773 15.330186,-11.7051 l 1.09189,-0.04368 c 2.30023,-0.116432 4.81886,0.524145 7.55591,1.921732 2.30021,1.339423 4.60047,2.678812 6.90076,4.018169" />
    <path
       inkscape:connector-curvature="0"
       id="path4008"
       style="font-size:89.44792175px;font-style:normal;font-variant:normal;font-weight:normal;font-stretch:normal;text-align:start;line-height:125%;letter-spacing:0px;word-spacing:0px;writing-mode:lr-tb;text-anchor:start;fill:#000000;fill-opacity:1;stroke:none;font-family:Domestic Manners;-inkscape-font-specification:Domestic Manners"
       d="m 158.07692,78.225775 c -1.68883,2.096459 -3.45042,3.144676 -5.28476,3.144654 -0.66973,2.2e-5 -1.26664,-0.145563 -1.79071,-0.436758 -0.69884,-1.193779 -1.70339,-2.256555 -3.01363,-3.188329 -1.42677,-0.989956 -2.78071,-1.484948 -4.06184,-1.484975 -3.98907,2.7e-5 -7.3521,3.916282 -10.0891,11.748775 -2.21292,6.260199 -3.31937,11.952599 -3.31935,17.077218 -0.55324,0.23293 -1.06279,0.3494 -1.52865,0.3494 -2.38762,0 -3.84348,-1.73247 -4.36758,-5.19741 -0.14559,-2.271133 -0.37853,-5.54681 -0.69881,-9.827042 -0.495,-4.425791 -0.74249,-7.716027 -0.74249,-9.870718 0,-3.697853 0.48043,-6.97353 1.4413,-9.827043 3.20288,1.04825 4.80432,2.125584 4.80433,3.232005 -1e-5,0.40767 -0.0582,1.004571 -0.1747,1.790706 -0.11648,0.786191 -0.17471,1.383092 -0.1747,1.790705 -1e-5,0.960892 0.29116,1.732496 0.87351,2.314815 4.07639,-4.047258 6.28929,-6.216484 6.63871,-6.507686 2.9117,-2.387574 5.67783,-3.581377 8.2984,-3.581411 2.53316,3.4e-5 4.99356,0.946341 7.3812,2.838923 0.20378,0.174734 2.14007,2.05279 5.80887,5.634171" />
    <path
       style="font-size:89.44792175px;font-style:normal;font-variant:normal;font-weight:normal;font-stretch:normal;text-align:start;line-height:125%;letter-spacing:0px;word-spacing:0px;writing-mode:lr-tb;text-anchor:start;fill:#000000;fill-opacity:1;stroke:none;font-family:Domestic Manners;-inkscape-font-specification:Domestic Manners"
       d="m 168.86482,77.002854 c -0.1456,1.921758 -1.01912,4.920823 -2.62054,8.997203 -1.51411,3.84348 -2.27115,6.827986 -2.27114,8.953528 -1e-5,2.038208 1.06276,3.057308 3.18833,3.057302 1.60142,6e-6 3.858,-0.480427 6.76974,-1.4413 2.24199,-0.815272 4.48401,-1.615993 6.72606,-2.402166 0.5532,0.698821 0.82981,1.470425 0.82984,2.314815 -3e-5,1.019107 -0.45134,2.212909 -1.35394,3.581414 -5.79434,3.46494 -10.86073,5.19741 -15.19916,5.19741 -4.48406,0 -6.72608,-2.38761 -6.72607,-7.162822 -1e-5,-3.173761 0.9463,-7.264719 2.83893,-12.272883 2.32935,-6.11458 3.6833,-10.132745 4.06184,-12.054506 0.96085,0.349436 2.21289,1.42677 3.75611,3.232005"
       id="path4010"
       inkscape:connector-curvature="0" />
    <path
       inkscape:connector-curvature="0"
       id="path4012"
       style="font-size:89.44792175px;font-style:normal;font-variant:normal;font-weight:normal;font-stretch:normal;text-align:start;line-height:125%;letter-spacing:0px;word-spacing:0px;writing-mode:lr-tb;text-anchor:start;fill:#000000;fill-opacity:1;stroke:none;font-family:Domestic Manners;-inkscape-font-specification:Domestic Manners"
       d="m 207.99829,39.048634 c -2e-5,8.647853 -0.77163,18.314741 -2.31481,29.000693 l 1.35394,-0.04368 c 4.92078,-0.145549 9.71054,1.266632 14.36932,4.236547 5.21193,3.319385 7.81792,7.33755 7.81796,12.054505 -4e-5,1.368525 -0.24754,2.809823 -0.74249,4.323899 -2.38765,7.221064 -9.65237,11.690552 -21.79419,13.408462 -7.62871,1.07733 -11.6032,1.616 -11.92348,1.616 -1.36852,0 -2.94084,-1.03366 -4.71698,-3.10098 -0.17471,-0.20382 -1.36851,-1.848939 -3.58141,-4.935363 -0.0582,-0.203812 -0.0874,-0.393073 -0.0873,-0.567785 -1e-5,-0.669685 0.82983,-1.557757 2.48952,-2.66422 l 2.14011,0 c 7.57044,-20.440216 11.35567,-37.197126 11.35569,-50.27078 -2e-5,-3.173706 -0.32031,-5.706897 -0.96087,-7.59958 1.31026,7e-5 2.69332,0.422268 4.1492,1.266597 1.63054,0.960933 2.44582,2.052826 2.44584,3.275681 m 14.67505,43.937797 c -4e-5,-2.795224 -1.33943,-4.935333 -4.01817,-6.420334 -2.1547,-1.222892 -4.74613,-1.834352 -7.77428,-1.834381 -2.24205,2.9e-5 -3.79981,0.247525 -4.6733,0.742487 -1.92176,1.077363 -3.59599,3.9454 -5.02272,8.604122 -0.96088,3.377607 -1.9363,6.740636 -2.92627,10.089096 2.38759,1.193813 5.16828,1.790714 8.34207,1.790706 4.36754,8e-6 8.0363,-1.048209 11.00628,-3.144654 3.37756,-2.358476 5.06635,-5.634154 5.06639,-9.827042" />
    <path
       inkscape:connector-curvature="0"
       id="path4014"
       style="font-size:89.44792175px;font-style:normal;font-variant:normal;font-weight:normal;font-stretch:normal;text-align:start;line-height:125%;letter-spacing:0px;word-spacing:0px;writing-mode:lr-tb;text-anchor:start;fill:#000000;fill-opacity:1;stroke:none;font-family:Domestic Manners;-inkscape-font-specification:Domestic Manners"
       d="m 253.07165,39.048634 c -2e-5,8.647853 -0.77162,18.314741 -2.31481,29.000693 l 1.35395,-0.04368 c 4.92077,-0.145549 9.71054,1.266632 14.36932,4.236547 5.21193,3.319385 7.81791,7.33755 7.81796,12.054505 -5e-5,1.368525 -0.24755,2.809823 -0.74249,4.323899 -2.38765,7.221064 -9.65238,11.690552 -21.7942,13.408462 -7.62871,1.07733 -11.6032,1.616 -11.92348,1.616 -1.36851,0 -2.94084,-1.03366 -4.71698,-3.10098 -0.17471,-0.20382 -1.36851,-1.848939 -3.58141,-4.935363 -0.0582,-0.203812 -0.0874,-0.393073 -0.0874,-0.567785 0,-0.669685 0.82984,-1.557757 2.48952,-2.66422 l 2.14011,0 c 7.57045,-20.440216 11.35567,-37.197126 11.35569,-50.27078 -2e-5,-3.173706 -0.3203,-5.706897 -0.96086,-7.59958 1.31025,7e-5 2.69331,0.422268 4.14919,1.266597 1.63054,0.960933 2.44582,2.052826 2.44584,3.275681 m 14.67505,43.937797 c -4e-5,-2.795224 -1.33942,-4.935333 -4.01816,-6.420334 -2.15471,-1.222892 -4.74613,-1.834352 -7.77429,-1.834381 -2.24204,2.9e-5 -3.79981,0.247525 -4.6733,0.742487 -1.92175,1.077363 -3.59599,3.9454 -5.02271,8.604122 -0.96088,3.377607 -1.93631,6.740636 -2.92628,10.089096 2.38759,1.193813 5.16828,1.790714 8.34207,1.790706 4.36755,8e-6 8.03631,-1.048209 11.00629,-3.144654 3.37755,-2.358476 5.06634,-5.634154 5.06638,-9.827042" />
    <path
       inkscape:connector-curvature="0"
       id="path4016"
       style="font-size:89.44792175px;font-style:normal;font-variant:normal;font-weight:normal;font-stretch:normal;text-align:start;line-height:125%;letter-spacing:0px;word-spacing:0px;writing-mode:lr-tb;text-anchor:start;fill:#000000;fill-opacity:1;stroke:none;font-family:Domestic Manners;-inkscape-font-specification:Domestic Manners"
       d="m 293.29702,48.657297 c -2e-5,3.989103 -1.61602,7.075519 -4.84801,9.259258 -1.42675,12.928053 -2.67879,26.889718 -3.75611,41.885037 0.81526,0.757048 1.2229,1.674238 1.22292,2.751568 -2e-5,0.96087 -0.29119,1.84894 -0.87351,2.66422 -0.66971,0.90263 -1.47044,1.35395 -2.40217,1.35395 -1.10646,0 -2.03821,-0.65514 -2.79525,-1.96541 0.43675,-14.529446 1.17924,-27.28275 2.22747,-38.259947 0.29115,-3.901658 0.97541,-9.390238 2.05276,-16.465755 0.26203,-1.135514 1.12099,-2.314758 2.57686,-3.537735 1.45584,-1.222862 2.75156,-1.834322 3.88715,-1.834381 1.80524,5.9e-5 2.70787,1.383123 2.70789,4.149195" />
    <path
       inkscape:connector-curvature="0"
       id="path4018"
       style="font-size:89.44792175px;font-style:normal;font-variant:normal;font-weight:normal;font-stretch:normal;text-align:start;line-height:125%;letter-spacing:0px;word-spacing:0px;writing-mode:lr-tb;text-anchor:start;fill:#000000;fill-opacity:1;stroke:none;font-family:Domestic Manners;-inkscape-font-specification:Domestic Manners"
       d="m 336.31762,74.469661 c -5e-5,1.485004 -0.68431,3.101004 -2.05276,4.848008 -8.18197,4.833468 -16.80064,7.25019 -25.85604,7.250173 -1.6597,1.7e-5 -3.36305,-0.08733 -5.11006,-0.262054 -1.485,1.048234 -2.22748,2.474974 -2.22747,4.280222 -10e-6,1.86351 0.75703,3.363043 2.27114,4.498602 1.33937,1.048226 2.96993,1.572334 4.89168,1.572327 2.70788,7e-6 6.97354,-1.179237 12.797,-3.537735 5.82339,-2.358477 9.97258,-3.537721 12.44758,-3.537736 1.4267,1.5e-5 2.59138,0.334862 3.49406,1.004542 -9.89987,8.706037 -18.91163,13.05905 -27.03528,13.05905 -4.57142,0 -8.15282,-1.06278 -10.74423,-3.18833 -2.79526,-2.300252 -4.19288,-5.677839 -4.19288,-10.132774 0,-0.66968 0.0291,-1.645104 0.0874,-2.926275 0.0582,-1.310254 0.0873,-2.300237 0.0874,-2.96995 -1e-5,-2.03818 -0.29118,-3.56683 -0.87352,-4.585953 2.5623,-0.436733 5.54681,-2.227437 8.95353,-5.372117 3.63962,-3.348441 6.37663,-5.313847 8.21104,-5.896225 3.02816,-0.96083 6.4203,-1.441263 10.17645,-1.4413 3.05726,3.7e-5 6.01265,0.509587 8.86617,1.528651 3.87254,1.397658 5.80883,3.333947 5.80888,5.808874 m -6.33298,0 c -2.15472,-1.077304 -4.54232,-1.615971 -7.16283,-1.616002 -2.41676,3.1e-5 -4.90627,0.480464 -7.46855,1.441299 -2.88262,1.077364 -4.94994,2.474986 -6.20195,4.192872 -0.66972,0.931773 -1.00457,1.659702 -1.00455,2.183787 -2e-5,0.990006 0.88805,1.484997 2.66422,1.484975 2.70787,2.2e-5 6.08546,-0.815258 10.13278,-2.445842 4.04724,-1.630535 7.06087,-3.377563 9.04088,-5.241089" />
    <path
       inkscape:connector-curvature="0"
       id="path4020"
       style="font-size:89.44792175px;font-style:normal;font-variant:normal;font-weight:normal;font-stretch:normal;text-align:start;line-height:125%;letter-spacing:0px;word-spacing:0px;writing-mode:lr-tb;text-anchor:start;fill:#000000;fill-opacity:1;stroke:none;font-family:Domestic Manners;-inkscape-font-specification:Domestic Manners"
       d="m 401.52551,63.550726 c -6e-5,0.931788 -0.32035,1.717951 -0.96087,2.35849 -0.64064,0.640615 -1.4268,0.960903 -2.35849,0.960866 -1.28121,3.7e-5 -2.51869,-0.465837 -3.71244,-1.397624 -1.2812,-0.960827 -1.92178,-2.067278 -1.92173,-3.319356 -5e-5,-0.727887 0.34935,-1.455815 1.04822,-2.183787 0.6114,-0.553182 1.23742,-1.106407 1.87806,-1.659679 -1.33945,-17.674054 -4.96453,-28.767681 -10.87526,-33.280916 -0.64063,-0.494912 -1.23753,-0.742408 -1.79071,-0.742487 -3.63968,7.9e-5 -7.61417,6.915398 -11.92348,20.745977 -3.87261,12.433075 -5.8089,21.867026 -5.80887,28.301882 -3e-5,0.727959 0.0582,1.281184 0.1747,1.659678 8.82247,0.90266 16.72777,3.290265 23.71593,7.162822 -0.0292,0.495013 0.20377,1.091914 0.69881,1.790706 -1.31032,0.232957 -2.67882,0.349425 -4.10552,0.349405 -1.98001,2e-5 -4.9354,-0.291151 -8.86617,-0.873514 -3.90174,-0.582323 -6.84257,-0.873494 -8.8225,-0.873515 -0.9609,2.1e-5 -1.86353,0.05826 -2.7079,0.174703 -1.54323,2.009103 -2.31484,5.110078 -2.31481,9.302933 -3e-5,0.349417 0.10188,1.936301 0.30573,4.760656 0.14556,1.979972 0.10188,3.552294 -0.13103,4.716984 l 9.91439,-4.848011 c 0.0582,0.262061 0.0873,0.538674 0.0874,0.829839 -3e-5,2.09644 -1.25207,4.585952 -3.75611,7.468552 -2.5041,2.8826 -4.81892,4.32389 -6.94444,4.3239 -1.83441,-1e-5 -3.23203,-1.10646 -4.19287,-3.31936 -0.72795,-1.65968 -1.09192,-3.53773 -1.0919,-5.63417 -2e-5,-1.019095 0.10189,-2.533186 0.30573,-4.542276 0.2038,-2.038191 0.30571,-3.566841 0.30573,-4.585953 -2e-5,-3.639629 -1.64513,-5.45945 -4.93536,-5.459468 -1.04823,1.8e-5 -2.62055,0.232955 -4.71698,0.698812 -2.09644,0.436774 -3.65421,0.655153 -4.6733,0.655136 -2.18379,1.7e-5 -3.27568,-1.484957 -3.27568,-4.454926 0,-3.173746 1.47041,-5.16827 4.41125,-5.983577 2.96994,-0.582315 5.95445,-1.150099 8.95353,-1.703354 3.55227,-1.252007 5.86708,-3.945342 6.94444,-8.080012 1.33937,-5.706921 2.67875,-11.39932 4.01817,-17.077216 2.12552,-8.473031 4.36754,-15.199089 6.72606,-20.178193 3.17374,-6.725983 6.71147,-10.700472 10.61321,-11.923478 0.55318,-0.174616 1.06273,-0.261968 1.52865,-0.262054 5.0081,8.6e-5 9.49214,6.624234 13.45213,19.872463 3.20282,10.715171 4.80427,19.46487 4.80433,26.249122" />
    <path
       inkscape:connector-curvature="0"
       id="path4022"
       style="font-size:89.44792175px;font-style:normal;font-variant:normal;font-weight:normal;font-stretch:normal;text-align:start;line-height:125%;letter-spacing:0px;word-spacing:0px;writing-mode:lr-tb;text-anchor:start;fill:#000000;fill-opacity:1;stroke:none;font-family:Domestic Manners;-inkscape-font-specification:Domestic Manners"
       d="m 412.09505,66.957434 c 4.25107,3.6e-5 7.94895,1.543245 11.09364,4.629628 3.17372,3.057332 4.76061,6.711532 4.76065,10.962612 -4e-5,5.852565 -2.28574,10.97718 -6.85709,15.373861 -4.57143,4.396695 -9.79795,6.595035 -15.67959,6.595035 -5.56139,0 -10.05999,-2.11099 -13.49581,-6.33298 -0.0582,-0.698806 -0.0874,-1.383058 -0.0874,-2.05276 0,-6.813401 2.53319,-12.753297 7.59958,-17.819703 -1e-5,-3.202859 1.32482,-5.925311 3.97449,-8.167364 2.53318,-2.125517 5.43033,-3.188293 8.69148,-3.188329 m 9.52131,14.849752 c -4e-5,-2.183763 -0.75708,-4.003584 -2.27114,-5.459468 -1.51413,-1.484946 -3.36306,-2.227433 -5.54682,-2.227463 -1.60147,3e-5 -2.99909,0.50958 -4.19287,1.528651 0.84437,1.426768 1.26657,2.737039 1.2666,3.930817 -3e-5,1.747053 -1.01913,3.508639 -3.05731,5.284765 -1.89263,1.543227 -3.77069,3.086435 -5.63417,4.629629 -1.97998,1.950862 -2.91173,4.032737 -2.79524,6.245631 l 0.0437,0.829839 c 4.16374,8e-6 7.25015,-0.203812 9.25926,-0.61146 3.31933,-0.669686 6.04178,-2.038191 8.16736,-4.10552 3.17374,-3.115521 4.76062,-6.463991 4.76066,-10.045421" />
    <path
       inkscape:connector-curvature="0"
       id="path4024"
       style="font-size:89.44792175px;font-style:normal;font-variant:normal;font-weight:normal;font-stretch:normal;text-align:start;line-height:125%;letter-spacing:0px;word-spacing:0px;writing-mode:lr-tb;text-anchor:start;fill:#000000;fill-opacity:1;stroke:none;font-family:Domestic Manners;-inkscape-font-specification:Domestic Manners"
       d="m 475.11913,87.0046 c -4e-5,9.346616 -2.62058,17.84882 -7.86163,25.50663 -0.40768,0.1747 -0.7862,0.26205 -1.13557,0.26206 -1.04825,-1e-5 -2.11103,-0.7425 -3.18833,-2.22746 -0.99002,-1.39763 -1.48501,-2.64967 -1.48498,-3.75612 -3e-5,-2.44584 1.87803,-4.99359 5.63417,-7.643254 1.01907,-3.319348 1.52862,-7.337513 1.52866,-12.054505 -4e-5,-3.930796 -0.32033,-6.827951 -0.96087,-8.691473 -1.04825,-3.144625 -3.11557,-4.71695 -6.20196,-4.71698 -4.45495,3e-5 -8.32753,2.606014 -11.61774,7.817958 -1.74705,2.795267 -3.8726,7.657828 -6.37666,14.587698 -1.89263,5.211976 -3.3776,7.817956 -4.45493,7.817956 -2.91172,0 -4.36758,-2.95539 -4.36757,-8.866174 -10e-6,-2.096424 0.3494,-5.663273 1.04822,-10.700557 0.72792,-5.037244 1.09188,-8.502183 1.09189,-10.394827 -1e-5,-0.611429 -0.0291,-1.179214 -0.0874,-1.703354 2.50407,0.669726 4.46947,1.921763 5.89622,3.756114 -10e-6,0.232965 -0.0291,0.698839 -0.0873,1.397624 -0.0291,0.582369 -0.0437,1.048243 -0.0437,1.397624 -2e-5,0.844422 0.21836,1.528674 0.65513,2.05276 3.84345,-5.386647 6.34752,-8.647766 7.51223,-9.783367 3.20286,-3.144617 6.87162,-4.716942 11.00629,-4.71698 4.74606,3.8e-5 8.31291,2.387643 10.70055,7.162822 1.86346,3.697906 2.79521,8.196503 2.79525,13.495805" />
    <path
       inkscape:connector-curvature="0"
       id="path4026"
       style="font-size:89.44792175px;font-style:normal;font-variant:normal;font-weight:normal;font-stretch:normal;text-align:start;line-height:125%;letter-spacing:0px;word-spacing:0px;writing-mode:lr-tb;text-anchor:start;fill:#000000;fill-opacity:1;stroke:none;font-family:Domestic Manners;-inkscape-font-specification:Domestic Manners"
       d="m 509.44826,53.636332 0.0437,0.873515 c 0.0582,2.038248 -0.49503,4.527763 -1.65968,7.468552 -1.54324,3.814386 -2.43131,6.21655 -2.66422,7.206497 0.75701,0.05827 1.61597,0.08739 2.57687,0.08735 0.96083,3.5e-5 2.38757,-0.04364 4.28022,-0.131027 1.92169,-0.08732 3.36299,-0.130993 4.3239,-0.131028 2.38756,3.5e-5 4.38209,0.247531 5.98358,0.742488 -0.32034,1.921765 -2.28575,3.144685 -5.89623,3.668762 -4.6879,0.669725 -7.86167,1.601473 -9.52131,2.795248 -3.31939,2.387633 -4.97906,6.900788 -4.97904,13.53948 -2e-5,4.396702 0.29115,7.716055 0.87352,9.95807 0.17467,0.698821 0.53864,1.048221 1.09189,1.048221 1.45583,0 3.94534,-1.73247 7.46856,-5.197417 2.67873,-2.591416 4.90619,-5.051814 6.68238,-7.3812 0.98994,0.407655 1.48493,1.237493 1.48498,2.489517 -5e-5,0.43677 -0.0728,1.091906 -0.21838,1.965408 -0.14563,0.873526 -0.21842,1.528661 -0.21838,1.965409 -5.91082,7.628703 -11.06455,11.443043 -15.46121,11.443043 -3.5232,0 -5.85257,-2.79524 -6.98812,-8.385741 -0.58237,-2.766122 -0.87354,-6.915313 -0.87351,-12.447587 -3e-5,-2.562289 0.0873,-4.862542 0.26205,-6.900767 -0.78619,-0.465849 -1.71793,-0.698786 -2.79525,-0.698812 -1.07735,2.6e-5 -2.66423,0.320315 -4.76065,0.960866 -2.09645,0.611485 -3.66878,0.917215 -4.71698,0.917191 -2.27115,2.4e-5 -3.5523,-1.455832 -3.84347,-4.367575 2.03819,-1.048188 4.94991,-1.950819 8.73515,-2.707896 4.51314,-0.902599 7.5122,-1.615969 8.9972,-2.140111 1.10643,-1.717877 2.1692,-5.13914 3.18833,-10.2638 0.96084,-4.658697 2.40214,-8.036284 4.3239,-10.132772 1.16465,5.4e-5 2.08184,0.378577 2.75157,1.135569 0.29114,0.320342 0.80069,1.193856 1.52865,2.620545" />
    <g
       id="g4053"
       transform="translate(-1.0101525,0)">
      <path
         inkscape:connector-curvature="0"
         id="path3218"
         d="m 170.17334,47.949699 c -4.86696,0.187625 -8.45933,5.106122 -10.20485,9.651552 -2.40221,6.25551 5.59294,12.518594 10.21421,13.281907 2.27903,0.376434 8.17484,-2.22427 9.68664,-3.450198 7.15541,-5.802299 -1.31969,-23.002006 -9.696,-19.483261 z"
         style="fill:none;stroke:#000000;stroke-width:2.33999991;stroke-linecap:round;stroke-linejoin:miter;stroke-miterlimit:4;stroke-opacity:1;stroke-dasharray:none" />
      <path
         sodipodi:nodetypes="sscssssss"
         inkscape:connector-curvature="0"
         id="path3220"
         d="m 177.43304,60.723214 c -2.48435,2.890557 -4.69549,2.432342 -6.54911,2.308036 -1.85362,-0.124306 -3.93812,0.180663 -6.44643,-2.4375 -0.47451,-0.499055 -1.2885,-0.681427 -1.7331,-0.315192 -0.16568,0.136473 -0.25909,1.249211 0.31612,2.09613 2.16765,3.191563 4.82157,4.921928 7.85446,5.125317 3.03289,0.203389 5.58108,-1.296228 7.94196,-5.651786 0.86405,-1.594072 0.54139,-2.249362 0.23769,-2.270248 -0.45625,-0.03138 -1.10986,0.549832 -1.62159,1.145243 z"
         style="font-size:medium;font-style:normal;font-variant:normal;font-weight:normal;font-stretch:normal;text-indent:0;text-align:start;text-decoration:none;line-height:normal;letter-spacing:normal;word-spacing:normal;text-transform:none;direction:ltr;block-progression:tb;writing-mode:lr-tb;text-anchor:start;baseline-shift:baseline;color:#000000;fill:#000000;fill-opacity:1;stroke:none;stroke-width:2.61500001;marker:none;visibility:visible;display:inline;overflow:visible;enable-background:accumulate;font-family:Sans;-inkscape-font-specification:Sans" />
      <path
         inkscape:transform-center-y="0.9559235"
         inkscape:transform-center-x="2.2162122"
         transform="matrix(0.2144977,0.04656873,-0.24384004,1.1231382,196.18451,-224.25113)"
         d="m 143.57143,244.50504 c 0,0.78897 -0.95939,1.42857 -2.14286,1.42857 -1.18346,0 -2.14285,-0.6396 -2.14285,-1.42857 0,-0.78898 0.95939,-1.42858 2.14285,-1.42858 1.18347,0 2.14286,0.6396 2.14286,1.42858 z"
         sodipodi:ry="1.4285715"
         sodipodi:rx="2.1428571"
         sodipodi:cy="244.50504"
         sodipodi:cx="141.42857"
         id="path3222"
         style="fill:#001455;fill-opacity:1;fill-rule:nonzero;stroke:#000000;stroke-width:3.5999999;stroke-linecap:round;stroke-linejoin:round;stroke-miterlimit:4;stroke-opacity:1;stroke-dasharray:none;stroke-dashoffset:0"
         sodipodi:type="arc" />
      <path
         transform="matrix(0.1685887,-0.0336761,0.38006122,1.9026555,51.463426,-411.76759)"
         d="m 172.85715,249.50504 c 0,0.39448 -1.11929,0.71428 -2.5,0.71428 -1.38071,0 -2.5,-0.3198 -2.5,-0.71428 0,-0.39449 1.11929,-0.71429 2.5,-0.71429 1.38071,0 2.5,0.3198 2.5,0.71429 z"
         sodipodi:ry="0.71428573"
         sodipodi:rx="2.5"
         sodipodi:cy="249.50504"
         sodipodi:cx="170.35715"
         id="path3224"
         style="fill:#001455;fill-opacity:1;fill-rule:nonzero;stroke:#000000;stroke-width:3.5999999;stroke-linecap:round;stroke-linejoin:round;stroke-miterlimit:4;stroke-opacity:1;stroke-dasharray:none;stroke-dashoffset:0"
         sodipodi:type="arc" />
    </g>
    <text
       xml:space="preserve"
       style="font-size:89.80805969px;font-style:normal;font-variant:normal;font-weight:normal;font-stretch:normal;text-align:start;line-height:125%;letter-spacing:0px;word-spacing:0px;writing-mode:lr-tb;text-anchor:start;fill:#000000;fill-opacity:1;stroke:none;font-family:Domestic Manners;-inkscape-font-specification:Domestic Manners"
       x="25.758177"
       y="239.01268"
       id="text3007"
       sodipodi:linespacing="125%"><tspan
         sodipodi:role="line"
         id="tspan3009"
         x="25.758177"
         y="239.01268">Scribblefont</tspan></text>
  </g>
</svg>
